# xmcd
#
# Track frame offsets: 
#        150
#        5577
#        27041
#        50833
#        69457
#        86298
#        111302
#        133885
#        152493
#        169633
#        183515
#        205934
#        225683
#        250295
#        270857
#        299722
#
# Disc length: 4242 seconds
#
# Revision: 3
# Processed by: cddbd v1.5.2PL0 Copyright (c) Steve Scherf et al.
# Submitted via: ExactAudioCopyFreeDBPlugin 1.0
#
DISCID=df109010
DTITLE=YU-A - DREAM
DYEAR=2012
DGENRE=R&B
TTITLE0=INTRO
TTITLE1=片想い
TTITLE2=あなたの笑顔
TTITLE3=鍵
TTITLE4=HAPPY BIRTHDAY ～Celebration～
TTITLE5=ごめんね、ママ
TTITLE6=DREAM
TTITLE7=Hey Ladies!
TTITLE8=I WANT YOU
TTITLE9=SWITCH feat.MYNAME
TTITLE10=夜明けが来るまで
TTITLE11=LINK
TTITLE12=oyasumi
TTITLE13=近づきたくて K.J. With YU-A
TTITLE14=誓い 童士-T feat.YU-A
TTITLE15=信ジルモノ SPICY CHOCOLATE feat.YU-A,AK-69,HAN-KUN from 湘南乃風
EXTD=
EXTT0=
EXTT1=
EXTT2=
EXTT3=
EXTT4=
EXTT5=
EXTT6=
EXTT7=
EXTT8=
EXTT9=
EXTT10=
EXTT11=
EXTT12=
EXTT13=
EXTT14=
EXTT15=
PLAYORDER=
